G04 EasyPC Gerber Version 21.0.3 Build 4286 *
G04 #@! TF.Part,Single*
G04 #@! TF.FileFunction,Soldermask,Bot *
G04 #@! TF.FilePolarity,Negative *
%FSLAX35Y35*%
%MOIN*%
G04 #@! TA.AperFunction,ComponentPad*
%ADD22R,0.05461X0.05461*%
%ADD29R,0.07496X0.07496*%
%ADD25C,0.05449*%
%ADD23C,0.05461*%
%ADD27C,0.06551*%
%ADD24C,0.07000*%
%ADD26C,0.07102*%
%ADD28R,0.09000X0.07000*%
%ADD72C,0.07496*%
X0Y0D02*
D02*
D22*
X331081Y223596D03*
D02*
D23*
Y93596D03*
Y103596D03*
Y113596D03*
Y123596D03*
Y133596D03*
Y143596D03*
Y153596D03*
Y163596D03*
Y173596D03*
Y183596D03*
Y193596D03*
Y203596D03*
Y213596D03*
X362333Y93596D03*
Y103596D03*
Y113596D03*
Y123596D03*
Y133596D03*
Y143596D03*
Y153596D03*
Y163596D03*
Y173596D03*
Y183596D03*
Y193596D03*
Y203596D03*
Y213596D03*
Y223596D03*
D02*
D24*
X116707Y178596D03*
X156707D03*
X261707Y143596D03*
Y173596D03*
X281707Y143596D03*
Y173596D03*
D02*
D25*
X301707Y128990D03*
Y148203D03*
D02*
D26*
X64266Y98596D03*
Y138596D03*
X104266Y98596D03*
Y138596D03*
D02*
D27*
X246707Y58754D03*
Y78439D03*
D02*
D28*
X291707Y53596D03*
Y63596D03*
X326707Y53596D03*
Y63596D03*
D02*
D29*
X286707Y208596D03*
X416707Y273596D03*
X456707Y173596D03*
X486707Y143596D03*
D02*
D72*
X286707Y218596D03*
Y228596D03*
Y238596D03*
Y248596D03*
Y258596D03*
Y268596D03*
Y278596D03*
X426707Y273596D03*
X436707D03*
X446707D03*
X456707Y183596D03*
Y193596D03*
Y203596D03*
Y213596D03*
Y223596D03*
Y233596D03*
Y243596D03*
Y273596D03*
X466707D03*
X476707D03*
X486707Y73596D03*
Y83596D03*
Y93596D03*
Y103596D03*
Y113596D03*
Y123596D03*
Y133596D03*
Y273596D03*
X0Y0D02*
M02*
