G04 EasyPC Gerber Version 21.0.3 Build 4286 *
G04 #@! TF.Part,Single*
G04 #@! TF.FileFunction,Copper,L2,Bot *
G04 #@! TF.FilePolarity,Positive *
%FSLAX35Y35*%
%MOIN*%
G04 #@! TA.AperFunction,ComponentPad*
%ADD85R,0.05906X0.08000*%
%ADD83R,0.05906X0.05906*%
G04 #@! TD.AperFunction*
%ADD79C,0.02362*%
%ADD20C,0.03150*%
G04 #@! TA.AperFunction,ComponentPad*
%ADD84C,0.05906*%
X0Y0D02*
D02*
D20*
X86707Y158596D02*
Y198596D01*
X151707Y263596*
X266707*
X86707Y158596D02*
X71707D01*
X66707Y153596*
Y138596*
X146707Y143596D02*
Y153596D01*
X141707Y158596*
X86707*
X231707Y143596D02*
X241707D01*
X251707Y133596*
X261707*
X276707Y118596*
X291081*
X236707Y113596D02*
X241707D01*
X251707Y123596*
X266707Y108596*
X291081*
X251707Y208596D02*
X281707D01*
X286707Y213596*
X341707*
X251707Y208596D02*
X211707D01*
Y148596*
X236707Y123596*
X251707*
Y208596D02*
X196707D01*
X186707Y198596*
X144266*
X266707Y263596D02*
X326707D01*
X266707D02*
X271707Y258596D01*
Y228596*
X261707Y218596*
X251707*
X291081Y108596D02*
X312333D01*
X322333Y118596*
Y98596D02*
X441707D01*
X451707Y108596*
X341707Y223596D02*
X336707D01*
X326707Y233596*
Y263596*
X451707Y38596D02*
X441707Y28596D01*
X141707*
X116707Y53596*
Y108596*
X126707Y118596*
X231707*
X236707Y113596*
X451707Y108596D02*
X466707D01*
X486707Y128596*
Y213596*
X436707Y263596*
X326707*
D02*
D79*
X144266Y238596D02*
X186707D01*
X146707Y63754D02*
X181549D01*
X181707Y63596*
X146707Y103596D02*
Y83439D01*
X181707Y63596D02*
Y38596D01*
X191707D02*
X281081D01*
X291081Y48596*
X191707Y63596D02*
X196707Y58596D01*
X291081*
X226707Y238596D02*
Y228596D01*
X236707Y83596D02*
X267100D01*
X271707Y78990*
X251707Y178596D02*
X256707D01*
X276707Y158596*
X291081*
X251707Y188596D02*
X261707D01*
X281707Y168596*
X291081*
X251707Y198596D02*
X291707D01*
X296707Y203596*
X341707*
X271707Y78990D02*
X281474D01*
X291081Y88596*
X271707Y98203D02*
X256313D01*
X251707Y93596*
X276707Y188596D02*
X281081D01*
X291081Y178596*
X281707Y128596D02*
X291081D01*
X281707Y138596D02*
X291081D01*
X281707Y148596D02*
X289207D01*
X290707Y150096*
Y148596*
X291081*
Y78596D02*
Y77970D01*
X281707Y68596*
X256707*
X291081Y98596D02*
X272100D01*
X271707Y98203*
X322333Y48596D02*
X451707D01*
X322333Y58596D02*
X451707D01*
X322333Y68596D02*
X451707D01*
X322333Y78596D02*
X451707D01*
X322333Y88596D02*
X322377Y87617D01*
X450727*
X451707Y88596*
X322333Y128596D02*
X451707D01*
X322333Y138596D02*
X451707D01*
X322333Y148596D02*
X451707D01*
X322333Y158596D02*
X451707D01*
X322333Y168596D02*
X346707D01*
X351707Y173596*
Y188596*
X346707Y193596*
X341707*
X322333Y168596D02*
Y169222D01*
Y178596D02*
X336707D01*
X341707Y183596*
X426707Y198596D02*
X451707D01*
X431707Y188596D02*
X451707D01*
Y168596D02*
X471707D01*
X451707Y178596D02*
X436707D01*
D02*
D83*
X251707D03*
X291081D03*
X341707Y183596D03*
X451707Y108596D03*
Y198596D03*
D02*
D84*
X66707Y138596D03*
X104266Y198596D03*
Y238596D03*
X144266Y198596D03*
Y238596D03*
X146707Y63754D03*
Y83439D03*
Y103596D03*
Y143596D03*
X186707Y238596D03*
X226707Y228596D03*
Y238596D03*
X231707Y143596D03*
X236707Y83596D03*
Y113596D03*
X251707Y93596D03*
Y123596D03*
Y188596D03*
Y198596D03*
Y208596D03*
Y218596D03*
Y228596D03*
Y238596D03*
Y248596D03*
X256707Y68596D03*
X271707Y78990D03*
Y98203D03*
X276707Y188596D03*
X281707Y128596D03*
Y138596D03*
Y148596D03*
X291081Y48596D03*
Y58596D03*
Y68596D03*
Y78596D03*
Y88596D03*
Y98596D03*
Y108596D03*
Y118596D03*
Y128596D03*
Y138596D03*
Y148596D03*
Y158596D03*
Y168596D03*
X322333Y48596D03*
Y58596D03*
Y68596D03*
Y78596D03*
Y88596D03*
Y98596D03*
Y108596D03*
Y118596D03*
Y128596D03*
Y138596D03*
Y148596D03*
Y158596D03*
Y168596D03*
Y178596D03*
X341707Y193596D03*
Y203596D03*
Y213596D03*
Y223596D03*
Y233596D03*
Y243596D03*
Y253596D03*
X426707Y198596D03*
X431707Y188596D03*
X436707Y178596D03*
X451707Y38596D03*
Y48596D03*
Y58596D03*
Y68596D03*
Y78596D03*
Y88596D03*
Y98596D03*
Y128596D03*
Y138596D03*
Y148596D03*
Y158596D03*
Y168596D03*
Y178596D03*
Y188596D03*
X471707Y168596D03*
D02*
D85*
X181707Y38596D03*
Y63596D03*
X191707Y38596D03*
Y63596D03*
X0Y0D02*
M02*
