G04 EasyPC Gerber Version 21.0.3 Build 4286 *
G04 #@! TF.Part,Single*
G04 #@! TF.FileFunction,Drillmap *
G04 #@! TF.FilePolarity,Positive *
%FSLAX35Y35*%
%MOIN*%
%ADD11C,0.00500*%
G04 #@! TA.AperFunction,ComponentPad*
%ADD73C,0.10000*%
X0Y0D02*
D02*
D11*
X74266Y104534D02*
Y108284D01*
X76141*
X76766Y107972*
X77078Y107659*
X77391Y107034*
Y105784*
X77078Y105159*
X76766Y104846*
X76141Y104534*
X74266*
Y144534D02*
Y148284D01*
X76141*
X76766Y147972*
X77078Y147659*
X77391Y147034*
Y145784*
X77078Y145159*
X76766Y144846*
X76141Y144534*
X74266*
X114266Y104534D02*
Y108284D01*
X116141*
X116766Y107972*
X117078Y107659*
X117391Y107034*
Y105784*
X117078Y105159*
X116766Y104846*
X116141Y104534*
X114266*
Y144534D02*
Y148284D01*
X116141*
X116766Y147972*
X117078Y147659*
X117391Y147034*
Y145784*
X117078Y145159*
X116766Y144846*
X116141Y144534*
X114266*
X128894Y186409D02*
X129519Y186096D01*
X129832Y185472*
X129519Y184846*
X128894Y184534*
X126707*
Y188284*
X128894*
X129519Y187972*
X129832Y187346*
X129519Y186722*
X128894Y186409*
X126707*
X168894D02*
X169519Y186096D01*
X169832Y185472*
X169519Y184846*
X168894Y184534*
X166707*
Y188284*
X168894*
X169519Y187972*
X169832Y187346*
X169519Y186722*
X168894Y186409*
X166707*
X168894Y241409D02*
X169519Y241096D01*
X169832Y240472*
X169519Y239846*
X168894Y239534*
X166707*
Y243284*
X168894*
X169519Y242972*
X169832Y242346*
X169519Y241722*
X168894Y241409*
X166707*
X213894Y41409D02*
X214519Y41096D01*
X214832Y40472*
X214519Y39846*
X213894Y39534*
X211707*
Y43284*
X213894*
X214519Y42972*
X214832Y42346*
X214519Y41722*
X213894Y41409*
X211707*
X256707Y64691D02*
Y68441D01*
X259832*
X259207Y66567D02*
X256707D01*
Y64691D02*
X259832D01*
X256707Y84376D02*
Y88126D01*
X259832*
X259207Y86252D02*
X256707D01*
Y84376D02*
X259832D01*
X273894Y151409D02*
X274519Y151096D01*
X274832Y150472*
X274519Y149846*
X273894Y149534*
X271707*
Y153284*
X273894*
X274519Y152972*
X274832Y152346*
X274519Y151722*
X273894Y151409*
X271707*
X273894Y181409D02*
X274519Y181096D01*
X274832Y180472*
X274519Y179846*
X273894Y179534*
X271707*
Y183284*
X273894*
X274519Y182972*
X274832Y182346*
X274519Y181722*
X273894Y181409*
X271707*
X283894Y191409D02*
X284519Y191096D01*
X284832Y190472*
X284519Y189846*
X283894Y189534*
X281707*
Y193284*
X283894*
X284519Y192972*
X284832Y192346*
X284519Y191722*
X283894Y191409*
X281707*
X293894Y151409D02*
X294519Y151096D01*
X294832Y150472*
X294519Y149846*
X293894Y149534*
X291707*
Y153284*
X293894*
X294519Y152972*
X294832Y152346*
X294519Y151722*
X293894Y151409*
X291707*
X293894Y181409D02*
X294519Y181096D01*
X294832Y180472*
X294519Y179846*
X293894Y179534*
X291707*
Y183284*
X293894*
X294519Y182972*
X294832Y182346*
X294519Y181722*
X293894Y181409*
X291707*
X298894Y216096D02*
X299832D01*
Y215784*
X299519Y215159*
X299207Y214846*
X298582Y214534*
X297957*
X297332Y214846*
X297019Y215159*
X296707Y215784*
Y217034*
X297019Y217659*
X297332Y217972*
X297957Y218284*
X298582*
X299207Y217972*
X299519Y217659*
X299832Y217034*
X298894Y226096D02*
X299832D01*
Y225784*
X299519Y225159*
X299207Y224846*
X298582Y224534*
X297957*
X297332Y224846*
X297019Y225159*
X296707Y225784*
Y227034*
X297019Y227659*
X297332Y227972*
X297957Y228284*
X298582*
X299207Y227972*
X299519Y227659*
X299832Y227034*
X298894Y236096D02*
X299832D01*
Y235784*
X299519Y235159*
X299207Y234846*
X298582Y234534*
X297957*
X297332Y234846*
X297019Y235159*
X296707Y235784*
Y237034*
X297019Y237659*
X297332Y237972*
X297957Y238284*
X298582*
X299207Y237972*
X299519Y237659*
X299832Y237034*
X298894Y246096D02*
X299832D01*
Y245784*
X299519Y245159*
X299207Y244846*
X298582Y244534*
X297957*
X297332Y244846*
X297019Y245159*
X296707Y245784*
Y247034*
X297019Y247659*
X297332Y247972*
X297957Y248284*
X298582*
X299207Y247972*
X299519Y247659*
X299832Y247034*
X298894Y256096D02*
X299832D01*
Y255784*
X299519Y255159*
X299207Y254846*
X298582Y254534*
X297957*
X297332Y254846*
X297019Y255159*
X296707Y255784*
Y257034*
X297019Y257659*
X297332Y257972*
X297957Y258284*
X298582*
X299207Y257972*
X299519Y257659*
X299832Y257034*
X298894Y266096D02*
X299832D01*
Y265784*
X299519Y265159*
X299207Y264846*
X298582Y264534*
X297957*
X297332Y264846*
X297019Y265159*
X296707Y265784*
Y267034*
X297019Y267659*
X297332Y267972*
X297957Y268284*
X298582*
X299207Y267972*
X299519Y267659*
X299832Y267034*
X298894Y276096D02*
X299832D01*
Y275784*
X299519Y275159*
X299207Y274846*
X298582Y274534*
X297957*
X297332Y274846*
X297019Y275159*
X296707Y275784*
Y277034*
X297019Y277659*
X297332Y277972*
X297957Y278284*
X298582*
X299207Y277972*
X299519Y277659*
X299832Y277034*
X298894Y286096D02*
X299832D01*
Y285784*
X299519Y285159*
X299207Y284846*
X298582Y284534*
X297957*
X297332Y284846*
X297019Y285159*
X296707Y285784*
Y287034*
X297019Y287659*
X297332Y287972*
X297957Y288284*
X298582*
X299207Y287972*
X299519Y287659*
X299832Y287034*
X301707Y59534D02*
Y63284D01*
X304832*
X304207Y61409D02*
X301707D01*
Y69534D02*
Y73284D01*
X304832*
X304207Y71409D02*
X301707D01*
X307644Y204534D02*
X308894D01*
X308269D02*
Y208284D01*
X307644D02*
X308894D01*
X314832Y135553D02*
X314519Y135240D01*
X313894Y134928*
X312957*
X312332Y135240*
X312019Y135553*
X311707Y136178*
Y137428*
X312019Y138053*
X312332Y138365*
X312957Y138678*
X313894*
X314519Y138365*
X314832Y138053*
Y154765D02*
X314519Y154453D01*
X313894Y154140*
X312957*
X312332Y154453*
X312019Y154765*
X311707Y155390*
Y156640*
X312019Y157265*
X312332Y157578*
X312957Y157890*
X313894*
X314519Y157578*
X314832Y157265*
X317644Y204534D02*
X318894D01*
X318269D02*
Y208284D01*
X317644D02*
X318894D01*
X322644Y114534D02*
X323894D01*
X323269D02*
Y118284D01*
X322644D02*
X323894D01*
X327644Y204534D02*
X328894D01*
X328269D02*
Y208284D01*
X327644D02*
X328894D01*
X336707Y59534D02*
Y63284D01*
X339832*
X339207Y61409D02*
X336707D01*
Y69534D02*
Y73284D01*
X339832*
X339207Y71409D02*
X336707D01*
X341081Y99534D02*
X342643Y103284D01*
X344206Y99534*
X341706Y101096D02*
X343581D01*
X341081Y109534D02*
X342643Y113284D01*
X344206Y109534*
X341706Y111096D02*
X343581D01*
X341081Y119534D02*
X342643Y123284D01*
X344206Y119534*
X341706Y121096D02*
X343581D01*
X341081Y129534D02*
X342643Y133284D01*
X344206Y129534*
X341706Y131096D02*
X343581D01*
X341081Y139534D02*
X342643Y143284D01*
X344206Y139534*
X341706Y141096D02*
X343581D01*
X341081Y149534D02*
X342643Y153284D01*
X344206Y149534*
X341706Y151096D02*
X343581D01*
X341081Y159534D02*
X342643Y163284D01*
X344206Y159534*
X341706Y161096D02*
X343581D01*
X341081Y169534D02*
X342643Y173284D01*
X344206Y169534*
X341706Y171096D02*
X343581D01*
X341081Y179534D02*
X342643Y183284D01*
X344206Y179534*
X341706Y181096D02*
X343581D01*
X341081Y189534D02*
X342643Y193284D01*
X344206Y189534*
X341706Y191096D02*
X343581D01*
X341081Y199534D02*
X342643Y203284D01*
X344206Y199534*
X341706Y201096D02*
X343581D01*
X341081Y209534D02*
X342643Y213284D01*
X344206Y209534*
X341706Y211096D02*
X343581D01*
X341081Y219534D02*
X342643Y223284D01*
X344206Y219534*
X341706Y221096D02*
X343581D01*
X341081Y229534D02*
X342643Y233284D01*
X344206Y229534*
X341706Y231096D02*
X343581D01*
X343268Y271409D02*
X343893Y271096D01*
X344206Y270472*
X343893Y269846*
X343268Y269534*
X341081*
Y273284*
X343268*
X343893Y272972*
X344206Y272346*
X343893Y271722*
X343268Y271409*
X341081*
X372333Y99534D02*
X373895Y103284D01*
X375458Y99534*
X372958Y101096D02*
X374833D01*
X372333Y109534D02*
X373895Y113284D01*
X375458Y109534*
X372958Y111096D02*
X374833D01*
X372333Y119534D02*
X373895Y123284D01*
X375458Y119534*
X372958Y121096D02*
X374833D01*
X372333Y129534D02*
X373895Y133284D01*
X375458Y129534*
X372958Y131096D02*
X374833D01*
X372333Y139534D02*
X373895Y143284D01*
X375458Y139534*
X372958Y141096D02*
X374833D01*
X372333Y149534D02*
X373895Y153284D01*
X375458Y149534*
X372958Y151096D02*
X374833D01*
X372333Y159534D02*
X373895Y163284D01*
X375458Y159534*
X372958Y161096D02*
X374833D01*
X372333Y169534D02*
X373895Y173284D01*
X375458Y169534*
X372958Y171096D02*
X374833D01*
X372333Y179534D02*
X373895Y183284D01*
X375458Y179534*
X372958Y181096D02*
X374833D01*
X372333Y189534D02*
X373895Y193284D01*
X375458Y189534*
X372958Y191096D02*
X374833D01*
X372333Y199534D02*
X373895Y203284D01*
X375458Y199534*
X372958Y201096D02*
X374833D01*
X372333Y209534D02*
X373895Y213284D01*
X375458Y209534*
X372958Y211096D02*
X374833D01*
X372333Y219534D02*
X373895Y223284D01*
X375458Y219534*
X372958Y221096D02*
X374833D01*
X372333Y229534D02*
X373895Y233284D01*
X375458Y229534*
X372958Y231096D02*
X374833D01*
X428894Y281096D02*
X429832D01*
Y280784*
X429519Y280159*
X429207Y279846*
X428582Y279534*
X427957*
X427332Y279846*
X427019Y280159*
X426707Y280784*
Y282034*
X427019Y282659*
X427332Y282972*
X427957Y283284*
X428582*
X429207Y282972*
X429519Y282659*
X429832Y282034*
X438894Y281096D02*
X439832D01*
Y280784*
X439519Y280159*
X439207Y279846*
X438582Y279534*
X437957*
X437332Y279846*
X437019Y280159*
X436707Y280784*
Y282034*
X437019Y282659*
X437332Y282972*
X437957Y283284*
X438582*
X439207Y282972*
X439519Y282659*
X439832Y282034*
X448894Y281096D02*
X449832D01*
Y280784*
X449519Y280159*
X449207Y279846*
X448582Y279534*
X447957*
X447332Y279846*
X447019Y280159*
X446707Y280784*
Y282034*
X447019Y282659*
X447332Y282972*
X447957Y283284*
X448582*
X449207Y282972*
X449519Y282659*
X449832Y282034*
X458894Y281096D02*
X459832D01*
Y280784*
X459519Y280159*
X459207Y279846*
X458582Y279534*
X457957*
X457332Y279846*
X457019Y280159*
X456707Y280784*
Y282034*
X457019Y282659*
X457332Y282972*
X457957Y283284*
X458582*
X459207Y282972*
X459519Y282659*
X459832Y282034*
X468894Y181096D02*
X469832D01*
Y180784*
X469519Y180159*
X469207Y179846*
X468582Y179534*
X467957*
X467332Y179846*
X467019Y180159*
X466707Y180784*
Y182034*
X467019Y182659*
X467332Y182972*
X467957Y183284*
X468582*
X469207Y182972*
X469519Y182659*
X469832Y182034*
X468894Y191096D02*
X469832D01*
Y190784*
X469519Y190159*
X469207Y189846*
X468582Y189534*
X467957*
X467332Y189846*
X467019Y190159*
X466707Y190784*
Y192034*
X467019Y192659*
X467332Y192972*
X467957Y193284*
X468582*
X469207Y192972*
X469519Y192659*
X469832Y192034*
X468894Y201096D02*
X469832D01*
Y200784*
X469519Y200159*
X469207Y199846*
X468582Y199534*
X467957*
X467332Y199846*
X467019Y200159*
X466707Y200784*
Y202034*
X467019Y202659*
X467332Y202972*
X467957Y203284*
X468582*
X469207Y202972*
X469519Y202659*
X469832Y202034*
X468894Y211096D02*
X469832D01*
Y210784*
X469519Y210159*
X469207Y209846*
X468582Y209534*
X467957*
X467332Y209846*
X467019Y210159*
X466707Y210784*
Y212034*
X467019Y212659*
X467332Y212972*
X467957Y213284*
X468582*
X469207Y212972*
X469519Y212659*
X469832Y212034*
X468894Y221096D02*
X469832D01*
Y220784*
X469519Y220159*
X469207Y219846*
X468582Y219534*
X467957*
X467332Y219846*
X467019Y220159*
X466707Y220784*
Y222034*
X467019Y222659*
X467332Y222972*
X467957Y223284*
X468582*
X469207Y222972*
X469519Y222659*
X469832Y222034*
X468894Y231096D02*
X469832D01*
Y230784*
X469519Y230159*
X469207Y229846*
X468582Y229534*
X467957*
X467332Y229846*
X467019Y230159*
X466707Y230784*
Y232034*
X467019Y232659*
X467332Y232972*
X467957Y233284*
X468582*
X469207Y232972*
X469519Y232659*
X469832Y232034*
X468894Y241096D02*
X469832D01*
Y240784*
X469519Y240159*
X469207Y239846*
X468582Y239534*
X467957*
X467332Y239846*
X467019Y240159*
X466707Y240784*
Y242034*
X467019Y242659*
X467332Y242972*
X467957Y243284*
X468582*
X469207Y242972*
X469519Y242659*
X469832Y242034*
X468894Y251096D02*
X469832D01*
Y250784*
X469519Y250159*
X469207Y249846*
X468582Y249534*
X467957*
X467332Y249846*
X467019Y250159*
X466707Y250784*
Y252034*
X467019Y252659*
X467332Y252972*
X467957Y253284*
X468582*
X469207Y252972*
X469519Y252659*
X469832Y252034*
X468894Y281096D02*
X469832D01*
Y280784*
X469519Y280159*
X469207Y279846*
X468582Y279534*
X467957*
X467332Y279846*
X467019Y280159*
X466707Y280784*
Y282034*
X467019Y282659*
X467332Y282972*
X467957Y283284*
X468582*
X469207Y282972*
X469519Y282659*
X469832Y282034*
X478894Y281096D02*
X479832D01*
Y280784*
X479519Y280159*
X479207Y279846*
X478582Y279534*
X477957*
X477332Y279846*
X477019Y280159*
X476707Y280784*
Y282034*
X477019Y282659*
X477332Y282972*
X477957Y283284*
X478582*
X479207Y282972*
X479519Y282659*
X479832Y282034*
X488894Y281096D02*
X489832D01*
Y280784*
X489519Y280159*
X489207Y279846*
X488582Y279534*
X487957*
X487332Y279846*
X487019Y280159*
X486707Y280784*
Y282034*
X487019Y282659*
X487332Y282972*
X487957Y283284*
X488582*
X489207Y282972*
X489519Y282659*
X489832Y282034*
X498894Y81096D02*
X499832D01*
Y80784*
X499519Y80159*
X499207Y79846*
X498582Y79534*
X497957*
X497332Y79846*
X497019Y80159*
X496707Y80784*
Y82034*
X497019Y82659*
X497332Y82972*
X497957Y83284*
X498582*
X499207Y82972*
X499519Y82659*
X499832Y82034*
X498894Y91096D02*
X499832D01*
Y90784*
X499519Y90159*
X499207Y89846*
X498582Y89534*
X497957*
X497332Y89846*
X497019Y90159*
X496707Y90784*
Y92034*
X497019Y92659*
X497332Y92972*
X497957Y93284*
X498582*
X499207Y92972*
X499519Y92659*
X499832Y92034*
X498894Y101096D02*
X499832D01*
Y100784*
X499519Y100159*
X499207Y99846*
X498582Y99534*
X497957*
X497332Y99846*
X497019Y100159*
X496707Y100784*
Y102034*
X497019Y102659*
X497332Y102972*
X497957Y103284*
X498582*
X499207Y102972*
X499519Y102659*
X499832Y102034*
X498894Y111096D02*
X499832D01*
Y110784*
X499519Y110159*
X499207Y109846*
X498582Y109534*
X497957*
X497332Y109846*
X497019Y110159*
X496707Y110784*
Y112034*
X497019Y112659*
X497332Y112972*
X497957Y113284*
X498582*
X499207Y112972*
X499519Y112659*
X499832Y112034*
X498894Y121096D02*
X499832D01*
Y120784*
X499519Y120159*
X499207Y119846*
X498582Y119534*
X497957*
X497332Y119846*
X497019Y120159*
X496707Y120784*
Y122034*
X497019Y122659*
X497332Y122972*
X497957Y123284*
X498582*
X499207Y122972*
X499519Y122659*
X499832Y122034*
X498894Y131096D02*
X499832D01*
Y130784*
X499519Y130159*
X499207Y129846*
X498582Y129534*
X497957*
X497332Y129846*
X497019Y130159*
X496707Y130784*
Y132034*
X497019Y132659*
X497332Y132972*
X497957Y133284*
X498582*
X499207Y132972*
X499519Y132659*
X499832Y132034*
X498894Y141096D02*
X499832D01*
Y140784*
X499519Y140159*
X499207Y139846*
X498582Y139534*
X497957*
X497332Y139846*
X497019Y140159*
X496707Y140784*
Y142034*
X497019Y142659*
X497332Y142972*
X497957Y143284*
X498582*
X499207Y142972*
X499519Y142659*
X499832Y142034*
X498894Y151096D02*
X499832D01*
Y150784*
X499519Y150159*
X499207Y149846*
X498582Y149534*
X497957*
X497332Y149846*
X497019Y150159*
X496707Y150784*
Y152034*
X497019Y152659*
X497332Y152972*
X497957Y153284*
X498582*
X499207Y152972*
X499519Y152659*
X499832Y152034*
X498894Y281096D02*
X499832D01*
Y280784*
X499519Y280159*
X499207Y279846*
X498582Y279534*
X497957*
X497332Y279846*
X497019Y280159*
X496707Y280784*
Y282034*
X497019Y282659*
X497332Y282972*
X497957Y283284*
X498582*
X499207Y282972*
X499519Y282659*
X499832Y282034*
X507644Y199534D02*
X508894D01*
X508269D02*
Y203284D01*
X507644D02*
X508894D01*
X522644Y184534D02*
X523894D01*
X523269D02*
Y188284D01*
X522644D02*
X523894D01*
X522644Y209534D02*
X523894D01*
X523269D02*
Y213284D01*
X522644D02*
X523894D01*
X537644Y189534D02*
X538894D01*
X538269D02*
Y193284D01*
X537644D02*
X538894D01*
D02*
D73*
X64266Y98596D03*
Y138596D03*
X104266Y98596D03*
Y138596D03*
X116707Y178596D03*
X156707D03*
Y233596D03*
X201707Y33596D03*
X246707Y58754D03*
Y78439D03*
X261707Y143596D03*
Y173596D03*
X271707Y183596D03*
X281707Y143596D03*
Y173596D03*
X286707Y208596D03*
Y218596D03*
Y228596D03*
Y238596D03*
Y248596D03*
Y258596D03*
Y268596D03*
Y278596D03*
X291707Y53596D03*
Y63596D03*
X296707Y198596D03*
X301707Y128990D03*
Y148203D03*
X306707Y198596D03*
X311707Y108596D03*
X316707Y198596D03*
X326707Y53596D03*
Y63596D03*
X331081Y93596D03*
Y103596D03*
Y113596D03*
Y123596D03*
Y133596D03*
Y143596D03*
Y153596D03*
Y163596D03*
Y173596D03*
Y183596D03*
Y193596D03*
Y203596D03*
Y213596D03*
Y223596D03*
Y263596D03*
X362333Y93596D03*
Y103596D03*
Y113596D03*
Y123596D03*
Y133596D03*
Y143596D03*
Y153596D03*
Y163596D03*
Y173596D03*
Y183596D03*
Y193596D03*
Y203596D03*
Y213596D03*
Y223596D03*
X416707Y273596D03*
X426707D03*
X436707D03*
X446707D03*
X456707Y173596D03*
Y183596D03*
Y193596D03*
Y203596D03*
Y213596D03*
Y223596D03*
Y233596D03*
Y243596D03*
Y273596D03*
X466707D03*
X476707D03*
X486707Y73596D03*
Y83596D03*
Y93596D03*
Y103596D03*
Y113596D03*
Y123596D03*
Y133596D03*
Y143596D03*
Y273596D03*
X496707Y193596D03*
X511707Y178596D03*
Y203596D03*
X526707Y183596D03*
X0Y0D02*
M02*
